<svg width="32" height="32" viewBox="0 0 32 32" fill="none" xmlns="http://www.w3.org/2000/svg">
  <!-- Building Icon -->
  <g transform="translate(4, 4)">
    <!-- Central section -->
    <path d="M12 24 L12 10 L16 8 L20 10 L20 24 Z" fill="#F5F5DC" stroke="#8B4513" stroke-width="0.5"/>
    <!-- Central roof -->
    <path d="M12 10 L16 8 L20 10 L20 12 L12 12 Z" fill="#F5F5DC" stroke="#8B4513" stroke-width="0.5"/>
    <!-- Central cross -->
    <path d="M15.5 8 L15.5 6.5 M14.5 7 L16.5 7" stroke="#8B4513" stroke-width="0.5"/>
    
    <!-- Left wing -->
    <path d="M2 24 L2 12 L8 10 L12 12 L12 24 Z" fill="#F5F5DC" stroke="#8B4513" stroke-width="0.5"/>
    <!-- Left roof -->
    <path d="M2 12 L8 10 L12 12 L12 14 L2 14 Z" fill="#F5F5DC" stroke="#8B4513" stroke-width="0.5"/>
    
    <!-- Right wing -->
    <path d="M20 24 L20 12 L26 10 L30 12 L30 24 Z" fill="#F5F5DC" stroke="#8B4513" stroke-width="0.5"/>
    <!-- Right roof -->
    <path d="M20 12 L26 10 L30 12 L30 14 L20 14 Z" fill="#F5F5DC" stroke="#8B4513" stroke-width="0.5"/>
    
    <!-- Windows -->
    <rect x="13" y="14" width="2" height="3" fill="none" stroke="#8B4513" stroke-width="0.25"/>
    <rect x="16" y="14" width="2" height="3" fill="none" stroke="#8B4513" stroke-width="0.25"/>
    
    <!-- Entrance -->
    <rect x="15" y="20" width="2" height="4" fill="none" stroke="#8B4513" stroke-width="0.5"/>
    
    <!-- Base -->
    <path d="M2 24 L30 24" stroke="#8B4513" stroke-width="0.5"/>
  </g>
</svg> 